<mxfile host="app.diagrams.net" agent="Mozilla/5.0 (Windows NT 10.0; Win64; x64) AppleWebKit/537.36 (KHTML, like Gecko) Chrome/131.0.0.0 Safari/537.36" version="25.0.0">
  <diagram name="Page-1" id="Mdvev9AVmil-PVZ4-yyN">
    <mxGraphModel dx="3490" dy="2130" grid="1" gridSize="10" guides="1" tooltips="1" connect="1" arrows="1" fold="1" page="0" pageScale="1" pageWidth="850" pageHeight="1100" math="0" shadow="0">
      <root>
        <mxCell id="0" />
        <mxCell id="1" parent="0" />
        <mxCell id="tlZ_zDhNa7tiUpkyIynX-21" value="" style="edgeStyle=none;curved=1;rounded=0;orthogonalLoop=1;jettySize=auto;html=1;fontSize=12;startSize=8;endSize=8;" edge="1" parent="1" source="tlZ_zDhNa7tiUpkyIynX-1" target="tlZ_zDhNa7tiUpkyIynX-3">
          <mxGeometry relative="1" as="geometry" />
        </mxCell>
        <mxCell id="tlZ_zDhNa7tiUpkyIynX-1" value="Start" style="ellipse;whiteSpace=wrap;html=1;" vertex="1" parent="1">
          <mxGeometry x="-460" y="-330" width="120" height="80" as="geometry" />
        </mxCell>
        <mxCell id="tlZ_zDhNa7tiUpkyIynX-26" value="" style="edgeStyle=none;curved=1;rounded=0;orthogonalLoop=1;jettySize=auto;html=1;fontSize=12;startSize=8;endSize=8;" edge="1" parent="1" source="tlZ_zDhNa7tiUpkyIynX-2" target="tlZ_zDhNa7tiUpkyIynX-4">
          <mxGeometry relative="1" as="geometry" />
        </mxCell>
        <mxCell id="tlZ_zDhNa7tiUpkyIynX-2" value="input&lt;br&gt;N and M" style="shape=parallelogram;perimeter=parallelogramPerimeter;whiteSpace=wrap;html=1;fixedSize=1;" vertex="1" parent="1">
          <mxGeometry x="-460" y="-120" width="120" height="60" as="geometry" />
        </mxCell>
        <mxCell id="tlZ_zDhNa7tiUpkyIynX-24" value="" style="edgeStyle=none;curved=1;rounded=0;orthogonalLoop=1;jettySize=auto;html=1;fontSize=12;startSize=8;endSize=8;" edge="1" parent="1" source="tlZ_zDhNa7tiUpkyIynX-3" target="tlZ_zDhNa7tiUpkyIynX-2">
          <mxGeometry relative="1" as="geometry" />
        </mxCell>
        <mxCell id="tlZ_zDhNa7tiUpkyIynX-3" value="int N, M" style="rounded=0;whiteSpace=wrap;html=1;" vertex="1" parent="1">
          <mxGeometry x="-460" y="-220" width="120" height="60" as="geometry" />
        </mxCell>
        <mxCell id="tlZ_zDhNa7tiUpkyIynX-28" value="" style="edgeStyle=none;curved=1;rounded=0;orthogonalLoop=1;jettySize=auto;html=1;fontSize=12;startSize=8;endSize=8;" edge="1" parent="1" source="tlZ_zDhNa7tiUpkyIynX-4" target="tlZ_zDhNa7tiUpkyIynX-5">
          <mxGeometry relative="1" as="geometry" />
        </mxCell>
        <mxCell id="tlZ_zDhNa7tiUpkyIynX-4" value="declare string vector&lt;br&gt;cave(N)" style="rounded=0;whiteSpace=wrap;html=1;" vertex="1" parent="1">
          <mxGeometry x="-460" y="-20" width="120" height="60" as="geometry" />
        </mxCell>
        <mxCell id="tlZ_zDhNa7tiUpkyIynX-29" value="" style="edgeStyle=none;curved=1;rounded=0;orthogonalLoop=1;jettySize=auto;html=1;fontSize=12;startSize=8;endSize=8;" edge="1" parent="1" source="tlZ_zDhNa7tiUpkyIynX-5" target="tlZ_zDhNa7tiUpkyIynX-6">
          <mxGeometry relative="1" as="geometry" />
        </mxCell>
        <mxCell id="tlZ_zDhNa7tiUpkyIynX-5" value="int i = 0" style="rounded=0;whiteSpace=wrap;html=1;" vertex="1" parent="1">
          <mxGeometry x="-460" y="80" width="120" height="60" as="geometry" />
        </mxCell>
        <mxCell id="tlZ_zDhNa7tiUpkyIynX-30" value="" style="edgeStyle=none;curved=1;rounded=0;orthogonalLoop=1;jettySize=auto;html=1;fontSize=12;startSize=8;endSize=8;" edge="1" parent="1" source="tlZ_zDhNa7tiUpkyIynX-6" target="tlZ_zDhNa7tiUpkyIynX-7">
          <mxGeometry relative="1" as="geometry" />
        </mxCell>
        <mxCell id="tlZ_zDhNa7tiUpkyIynX-32" value="&lt;font style=&quot;vertical-align: inherit;&quot;&gt;&lt;font style=&quot;vertical-align: inherit;&quot;&gt;true&lt;/font&gt;&lt;/font&gt;" style="edgeLabel;html=1;align=center;verticalAlign=middle;resizable=0;points=[];fontSize=12;" vertex="1" connectable="0" parent="tlZ_zDhNa7tiUpkyIynX-30">
          <mxGeometry x="-0.0094" y="-1" relative="1" as="geometry">
            <mxPoint x="1" as="offset" />
          </mxGeometry>
        </mxCell>
        <mxCell id="tlZ_zDhNa7tiUpkyIynX-34" style="edgeStyle=none;curved=0;rounded=0;orthogonalLoop=1;jettySize=auto;html=1;entryX=0;entryY=0.5;entryDx=0;entryDy=0;fontSize=12;startSize=8;endSize=8;" edge="1" parent="1" source="tlZ_zDhNa7tiUpkyIynX-6" target="tlZ_zDhNa7tiUpkyIynX-10">
          <mxGeometry relative="1" as="geometry">
            <Array as="points">
              <mxPoint x="-530" y="210" />
              <mxPoint x="-530" y="460" />
            </Array>
          </mxGeometry>
        </mxCell>
        <mxCell id="tlZ_zDhNa7tiUpkyIynX-35" value="&lt;font style=&quot;vertical-align: inherit;&quot;&gt;&lt;font style=&quot;vertical-align: inherit;&quot;&gt;false&lt;/font&gt;&lt;/font&gt;" style="edgeLabel;html=1;align=center;verticalAlign=middle;resizable=0;points=[];fontSize=12;" vertex="1" connectable="0" parent="tlZ_zDhNa7tiUpkyIynX-34">
          <mxGeometry x="-0.7837" relative="1" as="geometry">
            <mxPoint as="offset" />
          </mxGeometry>
        </mxCell>
        <mxCell id="tlZ_zDhNa7tiUpkyIynX-6" value="i &amp;lt; N" style="rhombus;whiteSpace=wrap;html=1;" vertex="1" parent="1">
          <mxGeometry x="-440" y="170" width="80" height="80" as="geometry" />
        </mxCell>
        <mxCell id="tlZ_zDhNa7tiUpkyIynX-36" style="edgeStyle=none;curved=0;rounded=0;orthogonalLoop=1;jettySize=auto;html=1;entryX=0.5;entryY=1;entryDx=0;entryDy=0;fontSize=12;startSize=8;endSize=8;" edge="1" parent="1" source="tlZ_zDhNa7tiUpkyIynX-7" target="tlZ_zDhNa7tiUpkyIynX-8">
          <mxGeometry relative="1" as="geometry">
            <Array as="points">
              <mxPoint x="-230" y="340" />
            </Array>
          </mxGeometry>
        </mxCell>
        <mxCell id="tlZ_zDhNa7tiUpkyIynX-7" value="input&lt;br&gt;cave[i]" style="shape=parallelogram;perimeter=parallelogramPerimeter;whiteSpace=wrap;html=1;fixedSize=1;" vertex="1" parent="1">
          <mxGeometry x="-460" y="310" width="120" height="60" as="geometry" />
        </mxCell>
        <mxCell id="tlZ_zDhNa7tiUpkyIynX-37" style="edgeStyle=none;curved=1;rounded=0;orthogonalLoop=1;jettySize=auto;html=1;exitX=0;exitY=0.5;exitDx=0;exitDy=0;entryX=1;entryY=0.5;entryDx=0;entryDy=0;fontSize=12;startSize=8;endSize=8;" edge="1" parent="1" source="tlZ_zDhNa7tiUpkyIynX-8" target="tlZ_zDhNa7tiUpkyIynX-6">
          <mxGeometry relative="1" as="geometry" />
        </mxCell>
        <mxCell id="tlZ_zDhNa7tiUpkyIynX-8" value="increment i" style="rounded=0;whiteSpace=wrap;html=1;" vertex="1" parent="1">
          <mxGeometry x="-290" y="180" width="120" height="60" as="geometry" />
        </mxCell>
        <mxCell id="tlZ_zDhNa7tiUpkyIynX-41" style="edgeStyle=none;curved=1;rounded=0;orthogonalLoop=1;jettySize=auto;html=1;entryX=0.5;entryY=0;entryDx=0;entryDy=0;fontSize=12;startSize=8;endSize=8;" edge="1" parent="1" source="tlZ_zDhNa7tiUpkyIynX-10" target="tlZ_zDhNa7tiUpkyIynX-38">
          <mxGeometry relative="1" as="geometry" />
        </mxCell>
        <mxCell id="tlZ_zDhNa7tiUpkyIynX-10" value="initialize string vector&lt;br&gt;result(N, &#39;O&#39; * M)" style="rounded=0;whiteSpace=wrap;html=1;" vertex="1" parent="1">
          <mxGeometry x="-460" y="430" width="120" height="60" as="geometry" />
        </mxCell>
        <mxCell id="tlZ_zDhNa7tiUpkyIynX-46" value="" style="edgeStyle=none;curved=1;rounded=0;orthogonalLoop=1;jettySize=auto;html=1;fontSize=12;startSize=8;endSize=8;" edge="1" parent="1" source="tlZ_zDhNa7tiUpkyIynX-11" target="tlZ_zDhNa7tiUpkyIynX-12">
          <mxGeometry relative="1" as="geometry" />
        </mxCell>
        <mxCell id="tlZ_zDhNa7tiUpkyIynX-11" value="int col = 0" style="rounded=0;whiteSpace=wrap;html=1;" vertex="1" parent="1">
          <mxGeometry x="115" y="-250" width="120" height="60" as="geometry" />
        </mxCell>
        <mxCell id="tlZ_zDhNa7tiUpkyIynX-48" value="" style="edgeStyle=none;curved=1;rounded=0;orthogonalLoop=1;jettySize=auto;html=1;fontSize=12;startSize=8;endSize=8;" edge="1" parent="1" source="tlZ_zDhNa7tiUpkyIynX-12" target="tlZ_zDhNa7tiUpkyIynX-13">
          <mxGeometry relative="1" as="geometry" />
        </mxCell>
        <mxCell id="tlZ_zDhNa7tiUpkyIynX-58" value="true" style="edgeLabel;html=1;align=center;verticalAlign=middle;resizable=0;points=[];fontSize=12;" vertex="1" connectable="0" parent="tlZ_zDhNa7tiUpkyIynX-48">
          <mxGeometry x="-0.248" relative="1" as="geometry">
            <mxPoint as="offset" />
          </mxGeometry>
        </mxCell>
        <mxCell id="tlZ_zDhNa7tiUpkyIynX-80" style="edgeStyle=none;curved=0;rounded=0;orthogonalLoop=1;jettySize=auto;html=1;exitX=1;exitY=0.5;exitDx=0;exitDy=0;entryX=0.5;entryY=0;entryDx=0;entryDy=0;fontSize=12;startSize=8;endSize=8;" edge="1" parent="1" source="tlZ_zDhNa7tiUpkyIynX-12" target="tlZ_zDhNa7tiUpkyIynX-63">
          <mxGeometry relative="1" as="geometry">
            <Array as="points">
              <mxPoint x="540" y="-110" />
              <mxPoint x="540" y="850" />
              <mxPoint x="175" y="850" />
            </Array>
          </mxGeometry>
        </mxCell>
        <mxCell id="tlZ_zDhNa7tiUpkyIynX-12" value="col &amp;lt; M" style="rhombus;whiteSpace=wrap;html=1;" vertex="1" parent="1">
          <mxGeometry x="135" y="-150" width="80" height="80" as="geometry" />
        </mxCell>
        <mxCell id="tlZ_zDhNa7tiUpkyIynX-51" value="" style="edgeStyle=none;curved=1;rounded=0;orthogonalLoop=1;jettySize=auto;html=1;fontSize=12;startSize=8;endSize=8;" edge="1" parent="1" source="tlZ_zDhNa7tiUpkyIynX-13" target="tlZ_zDhNa7tiUpkyIynX-14">
          <mxGeometry relative="1" as="geometry" />
        </mxCell>
        <mxCell id="tlZ_zDhNa7tiUpkyIynX-13" value="int sandPosition = N - 1" style="rounded=0;whiteSpace=wrap;html=1;" vertex="1" parent="1">
          <mxGeometry x="105" y="-20" width="140" height="60" as="geometry" />
        </mxCell>
        <mxCell id="tlZ_zDhNa7tiUpkyIynX-53" value="" style="edgeStyle=none;curved=1;rounded=0;orthogonalLoop=1;jettySize=auto;html=1;fontSize=12;startSize=8;endSize=8;" edge="1" parent="1" source="tlZ_zDhNa7tiUpkyIynX-14" target="tlZ_zDhNa7tiUpkyIynX-15">
          <mxGeometry relative="1" as="geometry" />
        </mxCell>
        <mxCell id="tlZ_zDhNa7tiUpkyIynX-14" value="int row = N - 1" style="rounded=0;whiteSpace=wrap;html=1;" vertex="1" parent="1">
          <mxGeometry x="115" y="80" width="120" height="60" as="geometry" />
        </mxCell>
        <mxCell id="tlZ_zDhNa7tiUpkyIynX-54" value="" style="edgeStyle=none;curved=1;rounded=0;orthogonalLoop=1;jettySize=auto;html=1;fontSize=12;startSize=8;endSize=8;" edge="1" parent="1" source="tlZ_zDhNa7tiUpkyIynX-15" target="tlZ_zDhNa7tiUpkyIynX-16">
          <mxGeometry relative="1" as="geometry" />
        </mxCell>
        <mxCell id="tlZ_zDhNa7tiUpkyIynX-59" value="true" style="edgeLabel;html=1;align=center;verticalAlign=middle;resizable=0;points=[];fontSize=12;" vertex="1" connectable="0" parent="tlZ_zDhNa7tiUpkyIynX-54">
          <mxGeometry x="-0.0533" y="5" relative="1" as="geometry">
            <mxPoint x="-5" y="-4" as="offset" />
          </mxGeometry>
        </mxCell>
        <mxCell id="tlZ_zDhNa7tiUpkyIynX-75" style="edgeStyle=none;curved=0;rounded=0;orthogonalLoop=1;jettySize=auto;html=1;entryX=0.5;entryY=1;entryDx=0;entryDy=0;fontSize=12;startSize=8;endSize=8;" edge="1" parent="1" source="tlZ_zDhNa7tiUpkyIynX-15" target="tlZ_zDhNa7tiUpkyIynX-74">
          <mxGeometry relative="1" as="geometry">
            <Array as="points">
              <mxPoint x="-30" y="230" />
            </Array>
          </mxGeometry>
        </mxCell>
        <mxCell id="tlZ_zDhNa7tiUpkyIynX-76" value="false" style="edgeLabel;html=1;align=center;verticalAlign=middle;resizable=0;points=[];fontSize=12;" vertex="1" connectable="0" parent="tlZ_zDhNa7tiUpkyIynX-75">
          <mxGeometry x="-0.3628" y="-3" relative="1" as="geometry">
            <mxPoint x="54" y="3" as="offset" />
          </mxGeometry>
        </mxCell>
        <mxCell id="tlZ_zDhNa7tiUpkyIynX-15" value="row &amp;gt;= 0" style="rhombus;whiteSpace=wrap;html=1;" vertex="1" parent="1">
          <mxGeometry x="135" y="190" width="80" height="80" as="geometry" />
        </mxCell>
        <mxCell id="tlZ_zDhNa7tiUpkyIynX-55" value="" style="edgeStyle=none;curved=1;rounded=0;orthogonalLoop=1;jettySize=auto;html=1;fontSize=12;startSize=8;endSize=8;" edge="1" parent="1" source="tlZ_zDhNa7tiUpkyIynX-16" target="tlZ_zDhNa7tiUpkyIynX-17">
          <mxGeometry relative="1" as="geometry" />
        </mxCell>
        <mxCell id="tlZ_zDhNa7tiUpkyIynX-60" value="true" style="edgeLabel;html=1;align=center;verticalAlign=middle;resizable=0;points=[];fontSize=12;" vertex="1" connectable="0" parent="tlZ_zDhNa7tiUpkyIynX-55">
          <mxGeometry x="-0.1961" y="2" relative="1" as="geometry">
            <mxPoint as="offset" />
          </mxGeometry>
        </mxCell>
        <mxCell id="tlZ_zDhNa7tiUpkyIynX-78" style="edgeStyle=none;curved=0;rounded=0;orthogonalLoop=1;jettySize=auto;html=1;entryX=0;entryY=0.5;entryDx=0;entryDy=0;fontSize=12;startSize=8;endSize=8;" edge="1" parent="1" source="tlZ_zDhNa7tiUpkyIynX-16" target="tlZ_zDhNa7tiUpkyIynX-18">
          <mxGeometry relative="1" as="geometry">
            <Array as="points">
              <mxPoint x="-30" y="380" />
              <mxPoint x="-30" y="630" />
            </Array>
          </mxGeometry>
        </mxCell>
        <mxCell id="tlZ_zDhNa7tiUpkyIynX-79" value="false" style="edgeLabel;html=1;align=center;verticalAlign=middle;resizable=0;points=[];fontSize=12;" vertex="1" connectable="0" parent="tlZ_zDhNa7tiUpkyIynX-78">
          <mxGeometry x="-0.752" y="1" relative="1" as="geometry">
            <mxPoint as="offset" />
          </mxGeometry>
        </mxCell>
        <mxCell id="tlZ_zDhNa7tiUpkyIynX-16" value="cave[row][col] == &#39;X&#39;" style="rhombus;whiteSpace=wrap;html=1;" vertex="1" parent="1">
          <mxGeometry x="100" y="340" width="150" height="80" as="geometry" />
        </mxCell>
        <mxCell id="tlZ_zDhNa7tiUpkyIynX-65" style="edgeStyle=none;curved=0;rounded=0;orthogonalLoop=1;jettySize=auto;html=1;entryX=0.5;entryY=1;entryDx=0;entryDy=0;fontSize=12;startSize=8;endSize=8;" edge="1" parent="1" source="tlZ_zDhNa7tiUpkyIynX-17" target="tlZ_zDhNa7tiUpkyIynX-64">
          <mxGeometry relative="1" as="geometry">
            <Array as="points">
              <mxPoint x="440" y="510" />
            </Array>
          </mxGeometry>
        </mxCell>
        <mxCell id="tlZ_zDhNa7tiUpkyIynX-17" value="&lt;div&gt;result[row][col] = &#39;X&#39;&lt;/div&gt;&lt;div&gt;sandPosition = row - 1&lt;/div&gt;" style="rounded=0;whiteSpace=wrap;html=1;" vertex="1" parent="1">
          <mxGeometry x="95" y="480" width="160" height="60" as="geometry" />
        </mxCell>
        <mxCell id="tlZ_zDhNa7tiUpkyIynX-57" value="" style="edgeStyle=none;curved=1;rounded=0;orthogonalLoop=1;jettySize=auto;html=1;fontSize=12;startSize=8;endSize=8;" edge="1" parent="1" source="tlZ_zDhNa7tiUpkyIynX-18" target="tlZ_zDhNa7tiUpkyIynX-19">
          <mxGeometry relative="1" as="geometry" />
        </mxCell>
        <mxCell id="tlZ_zDhNa7tiUpkyIynX-62" value="true" style="edgeLabel;html=1;align=center;verticalAlign=middle;resizable=0;points=[];fontSize=12;" vertex="1" connectable="0" parent="tlZ_zDhNa7tiUpkyIynX-57">
          <mxGeometry x="-0.251" y="-3" relative="1" as="geometry">
            <mxPoint as="offset" />
          </mxGeometry>
        </mxCell>
        <mxCell id="tlZ_zDhNa7tiUpkyIynX-70" style="edgeStyle=none;curved=0;rounded=0;orthogonalLoop=1;jettySize=auto;html=1;exitX=1;exitY=0.5;exitDx=0;exitDy=0;entryX=0.5;entryY=1;entryDx=0;entryDy=0;fontSize=12;startSize=8;endSize=8;" edge="1" parent="1" source="tlZ_zDhNa7tiUpkyIynX-18" target="tlZ_zDhNa7tiUpkyIynX-64">
          <mxGeometry relative="1" as="geometry">
            <Array as="points">
              <mxPoint x="440" y="630" />
            </Array>
          </mxGeometry>
        </mxCell>
        <mxCell id="tlZ_zDhNa7tiUpkyIynX-73" value="false" style="edgeLabel;html=1;align=center;verticalAlign=middle;resizable=0;points=[];fontSize=12;" vertex="1" connectable="0" parent="tlZ_zDhNa7tiUpkyIynX-70">
          <mxGeometry x="-0.7261" y="-2" relative="1" as="geometry">
            <mxPoint x="-1" as="offset" />
          </mxGeometry>
        </mxCell>
        <mxCell id="tlZ_zDhNa7tiUpkyIynX-18" value="cave[row][col] == &#39;S&#39;" style="rhombus;whiteSpace=wrap;html=1;" vertex="1" parent="1">
          <mxGeometry x="95" y="590" width="160" height="80" as="geometry" />
        </mxCell>
        <mxCell id="tlZ_zDhNa7tiUpkyIynX-66" style="edgeStyle=none;curved=0;rounded=0;orthogonalLoop=1;jettySize=auto;html=1;fontSize=12;startSize=8;endSize=8;" edge="1" parent="1" source="tlZ_zDhNa7tiUpkyIynX-19">
          <mxGeometry relative="1" as="geometry">
            <mxPoint x="440" y="260" as="targetPoint" />
            <Array as="points">
              <mxPoint x="440" y="750" />
            </Array>
          </mxGeometry>
        </mxCell>
        <mxCell id="tlZ_zDhNa7tiUpkyIynX-19" value="&lt;div&gt;result[sandPosition][col] = &#39;S&#39;&lt;/div&gt;&lt;div&gt;&lt;span style=&quot;background-color: initial;&quot;&gt;decrement sandPosition&lt;/span&gt;&lt;/div&gt;" style="rounded=0;whiteSpace=wrap;html=1;" vertex="1" parent="1">
          <mxGeometry x="70" y="720" width="210" height="60" as="geometry" />
        </mxCell>
        <mxCell id="tlZ_zDhNa7tiUpkyIynX-38" value="1" style="ellipse;whiteSpace=wrap;html=1;" vertex="1" parent="1">
          <mxGeometry x="-420" y="530" width="40" height="40" as="geometry" />
        </mxCell>
        <mxCell id="tlZ_zDhNa7tiUpkyIynX-45" value="" style="edgeStyle=none;curved=1;rounded=0;orthogonalLoop=1;jettySize=auto;html=1;fontSize=12;startSize=8;endSize=8;" edge="1" parent="1" source="tlZ_zDhNa7tiUpkyIynX-42" target="tlZ_zDhNa7tiUpkyIynX-11">
          <mxGeometry relative="1" as="geometry" />
        </mxCell>
        <mxCell id="tlZ_zDhNa7tiUpkyIynX-42" value="1" style="ellipse;whiteSpace=wrap;html=1;" vertex="1" parent="1">
          <mxGeometry x="155" y="-330" width="40" height="40" as="geometry" />
        </mxCell>
        <mxCell id="tlZ_zDhNa7tiUpkyIynX-61" style="edgeStyle=none;curved=1;rounded=0;orthogonalLoop=1;jettySize=auto;html=1;exitX=1;exitY=0;exitDx=0;exitDy=0;fontSize=12;startSize=8;endSize=8;" edge="1" parent="1" source="tlZ_zDhNa7tiUpkyIynX-18" target="tlZ_zDhNa7tiUpkyIynX-18">
          <mxGeometry relative="1" as="geometry" />
        </mxCell>
        <mxCell id="tlZ_zDhNa7tiUpkyIynX-85" value="" style="edgeStyle=none;curved=1;rounded=0;orthogonalLoop=1;jettySize=auto;html=1;fontSize=12;startSize=8;endSize=8;" edge="1" parent="1" source="tlZ_zDhNa7tiUpkyIynX-63" target="tlZ_zDhNa7tiUpkyIynX-82">
          <mxGeometry relative="1" as="geometry" />
        </mxCell>
        <mxCell id="tlZ_zDhNa7tiUpkyIynX-89" value="true" style="edgeLabel;html=1;align=center;verticalAlign=middle;resizable=0;points=[];fontSize=12;" vertex="1" connectable="0" parent="tlZ_zDhNa7tiUpkyIynX-85">
          <mxGeometry x="-0.2648" y="3" relative="1" as="geometry">
            <mxPoint as="offset" />
          </mxGeometry>
        </mxCell>
        <mxCell id="tlZ_zDhNa7tiUpkyIynX-97" style="edgeStyle=none;curved=0;rounded=0;orthogonalLoop=1;jettySize=auto;html=1;entryX=0.5;entryY=0;entryDx=0;entryDy=0;fontSize=12;startSize=8;endSize=8;strokeColor=none;" edge="1" parent="1" source="tlZ_zDhNa7tiUpkyIynX-63" target="tlZ_zDhNa7tiUpkyIynX-94">
          <mxGeometry relative="1" as="geometry">
            <Array as="points">
              <mxPoint x="-30" y="950" />
              <mxPoint x="-30" y="1360" />
              <mxPoint x="175" y="1360" />
            </Array>
          </mxGeometry>
        </mxCell>
        <mxCell id="tlZ_zDhNa7tiUpkyIynX-98" style="edgeStyle=none;curved=0;rounded=0;orthogonalLoop=1;jettySize=auto;html=1;entryX=0.5;entryY=0;entryDx=0;entryDy=0;fontSize=12;startSize=8;endSize=8;" edge="1" parent="1" source="tlZ_zDhNa7tiUpkyIynX-63" target="tlZ_zDhNa7tiUpkyIynX-94">
          <mxGeometry relative="1" as="geometry">
            <Array as="points">
              <mxPoint x="-10" y="950" />
              <mxPoint x="-10" y="1370" />
              <mxPoint x="175" y="1370" />
            </Array>
          </mxGeometry>
        </mxCell>
        <mxCell id="tlZ_zDhNa7tiUpkyIynX-100" value="false" style="edgeLabel;html=1;align=center;verticalAlign=middle;resizable=0;points=[];fontSize=12;" vertex="1" connectable="0" parent="tlZ_zDhNa7tiUpkyIynX-98">
          <mxGeometry x="-0.9089" y="-2" relative="1" as="geometry">
            <mxPoint x="1" as="offset" />
          </mxGeometry>
        </mxCell>
        <mxCell id="tlZ_zDhNa7tiUpkyIynX-63" value="any elements in result vector?" style="rhombus;whiteSpace=wrap;html=1;" vertex="1" parent="1">
          <mxGeometry x="55" y="910" width="240" height="80" as="geometry" />
        </mxCell>
        <mxCell id="tlZ_zDhNa7tiUpkyIynX-67" style="edgeStyle=none;curved=1;rounded=0;orthogonalLoop=1;jettySize=auto;html=1;entryX=1;entryY=0.5;entryDx=0;entryDy=0;fontSize=12;startSize=8;endSize=8;" edge="1" parent="1" source="tlZ_zDhNa7tiUpkyIynX-64" target="tlZ_zDhNa7tiUpkyIynX-15">
          <mxGeometry relative="1" as="geometry" />
        </mxCell>
        <mxCell id="tlZ_zDhNa7tiUpkyIynX-64" value="decrement row" style="rounded=0;whiteSpace=wrap;html=1;" vertex="1" parent="1">
          <mxGeometry x="380" y="200" width="120" height="60" as="geometry" />
        </mxCell>
        <mxCell id="tlZ_zDhNa7tiUpkyIynX-77" style="edgeStyle=none;curved=1;rounded=0;orthogonalLoop=1;jettySize=auto;html=1;entryX=0;entryY=0.5;entryDx=0;entryDy=0;fontSize=12;startSize=8;endSize=8;" edge="1" parent="1" source="tlZ_zDhNa7tiUpkyIynX-74" target="tlZ_zDhNa7tiUpkyIynX-12">
          <mxGeometry relative="1" as="geometry" />
        </mxCell>
        <mxCell id="tlZ_zDhNa7tiUpkyIynX-74" value="increment col" style="rounded=0;whiteSpace=wrap;html=1;" vertex="1" parent="1">
          <mxGeometry x="-90" y="-140" width="120" height="60" as="geometry" />
        </mxCell>
        <mxCell id="tlZ_zDhNa7tiUpkyIynX-86" value="" style="edgeStyle=none;curved=1;rounded=0;orthogonalLoop=1;jettySize=auto;html=1;fontSize=12;startSize=8;endSize=8;" edge="1" parent="1" source="tlZ_zDhNa7tiUpkyIynX-82" target="tlZ_zDhNa7tiUpkyIynX-83">
          <mxGeometry relative="1" as="geometry" />
        </mxCell>
        <mxCell id="tlZ_zDhNa7tiUpkyIynX-82" value="initialize string row to 1-st element" style="rounded=0;whiteSpace=wrap;html=1;" vertex="1" parent="1">
          <mxGeometry x="115" y="1040" width="120" height="60" as="geometry" />
        </mxCell>
        <mxCell id="tlZ_zDhNa7tiUpkyIynX-87" value="" style="edgeStyle=none;curved=1;rounded=0;orthogonalLoop=1;jettySize=auto;html=1;fontSize=12;startSize=8;endSize=8;" edge="1" parent="1" source="tlZ_zDhNa7tiUpkyIynX-83" target="tlZ_zDhNa7tiUpkyIynX-84">
          <mxGeometry relative="1" as="geometry" />
        </mxCell>
        <mxCell id="tlZ_zDhNa7tiUpkyIynX-83" value="output&lt;br&gt;row" style="shape=parallelogram;perimeter=parallelogramPerimeter;whiteSpace=wrap;html=1;fixedSize=1;" vertex="1" parent="1">
          <mxGeometry x="115" y="1140" width="120" height="60" as="geometry" />
        </mxCell>
        <mxCell id="tlZ_zDhNa7tiUpkyIynX-91" style="edgeStyle=none;curved=0;rounded=0;orthogonalLoop=1;jettySize=auto;html=1;exitX=1;exitY=0.5;exitDx=0;exitDy=0;entryX=0.75;entryY=1;entryDx=0;entryDy=0;fontSize=12;startSize=8;endSize=8;" edge="1" parent="1" source="tlZ_zDhNa7tiUpkyIynX-84" target="tlZ_zDhNa7tiUpkyIynX-88">
          <mxGeometry relative="1" as="geometry">
            <Array as="points">
              <mxPoint x="500" y="1280" />
            </Array>
          </mxGeometry>
        </mxCell>
        <mxCell id="tlZ_zDhNa7tiUpkyIynX-93" value="true" style="edgeLabel;html=1;align=center;verticalAlign=middle;resizable=0;points=[];fontSize=12;" vertex="1" connectable="0" parent="tlZ_zDhNa7tiUpkyIynX-91">
          <mxGeometry x="-0.596" y="-3" relative="1" as="geometry">
            <mxPoint x="1" as="offset" />
          </mxGeometry>
        </mxCell>
        <mxCell id="tlZ_zDhNa7tiUpkyIynX-95" value="" style="edgeStyle=none;curved=1;rounded=0;orthogonalLoop=1;jettySize=auto;html=1;fontSize=12;startSize=8;endSize=8;" edge="1" parent="1" source="tlZ_zDhNa7tiUpkyIynX-84" target="tlZ_zDhNa7tiUpkyIynX-94">
          <mxGeometry relative="1" as="geometry" />
        </mxCell>
        <mxCell id="tlZ_zDhNa7tiUpkyIynX-99" value="false" style="edgeLabel;html=1;align=center;verticalAlign=middle;resizable=0;points=[];fontSize=12;" vertex="1" connectable="0" parent="tlZ_zDhNa7tiUpkyIynX-95">
          <mxGeometry x="-0.581" y="3" relative="1" as="geometry">
            <mxPoint y="-1" as="offset" />
          </mxGeometry>
        </mxCell>
        <mxCell id="tlZ_zDhNa7tiUpkyIynX-84" value="any remaining elements&lt;br&gt;in result vector?" style="rhombus;whiteSpace=wrap;html=1;" vertex="1" parent="1">
          <mxGeometry x="55" y="1240" width="240" height="80" as="geometry" />
        </mxCell>
        <mxCell id="tlZ_zDhNa7tiUpkyIynX-92" style="edgeStyle=none;curved=1;rounded=0;orthogonalLoop=1;jettySize=auto;html=1;fontSize=12;startSize=8;endSize=8;" edge="1" parent="1" source="tlZ_zDhNa7tiUpkyIynX-88">
          <mxGeometry relative="1" as="geometry">
            <mxPoint x="300" y="950" as="targetPoint" />
          </mxGeometry>
        </mxCell>
        <mxCell id="tlZ_zDhNa7tiUpkyIynX-88" value="initialize string row&lt;br&gt;to next element" style="rounded=0;whiteSpace=wrap;html=1;" vertex="1" parent="1">
          <mxGeometry x="410" y="920" width="120" height="60" as="geometry" />
        </mxCell>
        <mxCell id="tlZ_zDhNa7tiUpkyIynX-94" value="End" style="ellipse;whiteSpace=wrap;html=1;" vertex="1" parent="1">
          <mxGeometry x="115" y="1440" width="120" height="80" as="geometry" />
        </mxCell>
      </root>
    </mxGraphModel>
  </diagram>
</mxfile>
